<svg xmlns="http://www.w3.org/2000/svg" viewBox="0 0 484.96 327.18"><defs><style>.cls-1{fill:#070808;stroke:#781215;stroke-miterlimit:10;stroke-width:8px;}.cls-2{fill:#f7f7f7;}.cls-3{fill:#e61e25;}</style></defs><g id="black"><path class="cls-1" d="M54.62,4H430.34A50.63,50.63,0,0,1,481,54.63V272.55a50.62,50.62,0,0,1-50.62,50.62H54.63A50.63,50.63,0,0,1,4,272.55V54.63A50.62,50.62,0,0,1,54.62,4Z"/></g><g id="white"><polygon class="cls-2" points="175.7 93.25 140.77 93.25 236.98 262.54 338.13 93.25 297.41 93.25 236.98 197.39 175.7 93.25"/></g><g id="red"><polygon class="cls-3" points="270.63 110.82 236.55 167.61 203.13 110.82 270.63 110.82"/></g><g id="Layer_5" data-name="Layer 5"><rect class="cls-3" x="139.91" y="73.32" width="198" height="10.29" rx="4.15"/></g></svg>